{"title":"NJPW World Pro-Wrestling on AXS TV 2015-10-23 720p HDTV-XHP -={S","uid":12625177,"size":2777307920,"categoryP":"video","categoryS":"hd___movies","magnet":"?xt=urn:btih:306bffb7cd06e7ed9eab1c625525522f2797474d&amp;dn=NJPW+World+Pro-Wrestling+on+AXS+TV+2015-10-23+720p+HDTV-XHP+-%3D%7BS&amp;tr=udp%3A%2F%2Ftracker.leechers-paradise.org%3A6969&amp;tr=udp%3A%2F%2Fzer0day.ch%3A1337&amp;tr=udp%3A%2F%2Fopen.demonii.com%3A1337&amp;tr=udp%3A%2F%2Ftracker.coppersurfer.tk%3A6969&amp;tr=udp%3A%2F%2Fexodus.desync.com%3A6969","seeders":0,"leechers":1,"uploader":"CenaCme","files":3,"time":1445765165,"description":"XHP Media Encode\r\n\r\nSource: HDTV rip\r\n\r\n===== File Info =====\r\nFormat                      : MPEG-4\r\nFormat profile              : Base Media / Version 2\r\nCodec ID                    : mp42\r\nFile size                  : 2.59 GiB\r\nDuration                    : 49mn 23s\r\nOverall bit rate mode      : Variable\r\nOverall bit rate            : 7 498 Kbps\r\n\r\n===== Video Info =====\r\nID                          : 1\r\nFormat                      : AVC\r\nFormat/Info                : Advanced Video Codec\r\nFormat profile              :   \r\nFormat settings, CABAC      : Yes\r\nFormat settings, ReFrames  : 4 frames\r\nCodec ID                    : avc1\r\nCodec ID/Info              : Advanced Video Coding\r\nDuration                    : 49mn 23s\r\nBit rate                    : 6 658 Kbps\r\nWidth                      : 1 280 pixels\r\nHeight                      : 720 pixels\r\nDisplay aspect ratio        : 16:9\r\nFrame rate mode            : Variable\r\nFrame rate                  : 23.976 fps\r\nMinimum frame rate          : 23.974 fps\r\nMaximum frame rate          : 23.981 fps\r\nColor space                : YUV\r\nChroma subsampling          : 4:2:0\r\nBit depth                  : 8 bits\r\nScan type                  : Progressive\r\nBits/(Pixel*Frame)          : 0.301\r\nStream size                : 2.30 GiB (89%)\r\n\r\n===== Audio Info =====\r\nAudio #1\r\nID                          : 2\r\nFormat                      : AC-3\r\nFormat/Info                : Audio Coding 3\r\nMode extension              : CM (complete main)\r\nFormat settings, Endianness : Big\r\nCodec ID                    : ac-3\r\nDuration                    : 49mn 23s\r\nBit rate mode              : Constant\r\nBit rate                    : 640 Kbps\r\nChannel(s)                  : 6 channels\r\nChannel positions          : Front: L C R, Side: L R, LFE\r\nSampling rate              : 48.0 KHz\r\nBit depth                  : 16 bits\r\nCompression mode            : Lossy\r\nStream size                : 226 MiB (9%)\r\nTitle                      : Surround / Surround\r\n\r\nAudio #2\r\nID                          : 3\r\nFormat                      : AAC\r\nFormat/Info                : Advanced Audio Codec\r\nFormat profile              : LC\r\nCodec ID                    : 40\r\nDuration                    : 49mn 23s\r\nBit rate mode              : Variable\r\nBit rate                    : 192 Kbps\r\nChannel(s)                  : 2 channels\r\nChannel positions          : Front: L R\r\nSampling rate              : 48.0 KHz\r\nCompression mode            : Lossy\r\nStream size                : 67.8 MiB (3%)\r\nTitle                      : Stereo / Stereo\r\n\r\nNJPW World Pro-Wrestling on AXS TV 2015-10-23 Episode ripped from HDTV by brienj of XHP Media.\r\n\r\n\r\nThumb sheet:\r\n \nhttp://imgsparrow.co/image/8Rt","torrent":{"xt":"urn:btih:306bffb7cd06e7ed9eab1c625525522f2797474d","amp;dn":"NJPW+World+Pro-Wrestling+on+AXS+TV+2015-10-23+720p+HDTV-XHP+-%3D%7BS","amp;tr":["udp%3A%2F%2Ftracker.leechers-paradise.org%3A6969","udp%3A%2F%2Fzer0day.ch%3A1337","udp%3A%2F%2Fopen.demonii.com%3A1337","udp%3A%2F%2Ftracker.coppersurfer.tk%3A6969","udp%3A%2F%2Fexodus.desync.com%3A6969"],"infoHash":"306bffb7cd06e7ed9eab1c625525522f2797474d","infoHashBuffer":{"type":"Buffer","data":[48,107,255,183,205,6,231,237,158,171,28,98,85,37,82,47,39,151,71,77]},"announce":[],"urlList":[]}}